<svg xmlns="http://www.w3.org/2000/svg" width="960" height="540" viewBox="0 0 960 540">
  <rect width="960" height="540" fill="#19212b"/><rect x="32" y="26" width="896" height="488" fill="#f0efe8" stroke="#fff" stroke-width="3"/><rect x="35" y="29" width="890" height="42" fill="#403f58"/><text x="55" y="57" fill="white" font-family="monospace" font-size="19" font-weight="bold">TOKEN CACHE / PERFORMANCE</text><text x="65" y="115" fill="#25252f" font-family="monospace" font-size="23">LRU cache dashboard</text>
  <rect x="63" y="144" width="262" height="105" fill="#fff" stroke="#999"/><text x="82" y="178" fill="#666" font-family="monospace" font-size="15">HIT RATE</text><text x="82" y="224" fill="#117a69" font-family="monospace" font-size="34" font-weight="bold">94.2%</text><rect x="349" y="144" width="262" height="105" fill="#fff" stroke="#999"/><text x="368" y="178" fill="#666" font-family="monospace" font-size="15">ENTRIES</text><text x="368" y="224" fill="#1f467c" font-family="monospace" font-size="34" font-weight="bold">12,408</text><rect x="635" y="144" width="262" height="105" fill="#fff" stroke="#999"/><text x="654" y="178" fill="#666" font-family="monospace" font-size="15">EVICTIONS</text><text x="654" y="224" fill="#a24e36" font-family="monospace" font-size="34" font-weight="bold">128</text>
  <rect x="63" y="279" width="834" height="195" fill="#fff" stroke="#999"/><text x="82" y="315" fill="#333" font-family="monospace" font-size="16">CACHE HITS / 24 HOURS</text><path d="M92 425 L150 404 L208 411 L266 382 L324 397 L382 369 L440 379 L498 347 L556 360 L614 333 L672 348 L730 316 L788 323 L856 298" fill="none" stroke="#117a69" stroke-width="5"/><line x1="92" y1="440" x2="856" y2="440" stroke="#aaa"/>
</svg>
